HIERARCHY
ROOT Hips
{
	OFFSET -3.958830 18.904000 13.208200
	CHANNELS 6 Xposition Yposition Zposition Zrotation Yrotation Xrotation 
	JOINT LHipJoint
	{
		OFFSET 0.000000 0.000000 0.000000
		CHANNELS 3 Zrotation Yrotation Xrotation
		JOINT LeftUpLeg
		{
			OFFSET 1.800000 -1.400000 0.085000
			CHANNELS 3 Zrotation Yrotation Xrotation
			JOINT LeftLeg
			{
				OFFSET 2.215000 -6.000000 0.000000
				CHANNELS 3 Zrotation Yrotation Xrotation
				JOINT LeftFoot
				{
					OFFSET 2.500000 -6.900000 0.000000
					CHANNELS 3 Zrotation Yrotation Xrotation
					JOINT LeftToeBase
					{
						OFFSET 0.200000 -0.500000 1.950000
						CHANNELS 3 Zrotation Yrotation Xrotation
						End Site
						{
							OFFSET 0.000000 0.000000 0.000000
						}
					}
				}
			}
		}
	}
	JOINT RHipJoint
	{
		OFFSET 0.000000 0.000000 0.000000
		CHANNELS 3 Zrotation Yrotation Xrotation
		JOINT RightUpLeg
		{
			OFFSET -1.800000 -1.400000 0.085000
			CHANNELS 3 Zrotation Yrotation Xrotation
			JOINT RightLeg
			{
				OFFSET -2.215000 -6.000000 0.000000
				CHANNELS 3 Zrotation Yrotation Xrotation
				JOINT RightFoot
				{
					OFFSET -2.500000 -6.900000 0.000000
					CHANNELS 3 Zrotation Yrotation Xrotation
					JOINT RightToeBase
					{
						OFFSET -0.200000 -0.500000 1.950000
						CHANNELS 3 Zrotation Yrotation Xrotation
						End Site
						{
							OFFSET 0.000000 0.000000 0.000000
						}
					}
				}
			}
		}
	}
	JOINT LowerBack
	{
		OFFSET 0.000000 0.000000 0.000000
		CHANNELS 3 Zrotation Yrotation Xrotation
		JOINT Spine
		{
			OFFSET -0.087000 1.940000 -0.288900
			CHANNELS 3 Zrotation Yrotation Xrotation
			JOINT Spine1
			{
				OFFSET 0.000000 1.950000 0.060000
				CHANNELS 3 Zrotation Yrotation Xrotation
				JOINT Neck
				{
					OFFSET 0.000000 0.000000 0.000000
					CHANNELS 3 Zrotation Yrotation Xrotation
					JOINT Neck1
					{
						OFFSET 0.000000 1.600000 0.340000
						CHANNELS 3 Zrotation Yrotation Xrotation
						JOINT Head
						{
							OFFSET 0.000000 1.667000 -0.240000
							CHANNELS 3 Zrotation Yrotation Xrotation
							End Site
							{
								OFFSET 0.000000 0.000000 0.000000
							}
						}
					}
				}
				JOINT LeftShoulder
				{
					OFFSET 0.000000 0.000000 0.000000
					CHANNELS 3 Zrotation Yrotation Xrotation
					JOINT LeftArm
					{
						OFFSET 2.700000 1.550000 -0.730000
						CHANNELS 3 Zrotation Yrotation Xrotation
						JOINT LeftForeArm
						{
							OFFSET 5.450000 0.000000 0.000000
							CHANNELS 3 Zrotation Yrotation Xrotation
							JOINT LeftHand
							{
								OFFSET 3.450000 0.000000 0.000000
								CHANNELS 3 Zrotation Yrotation Xrotation
								JOINT LeftHandIndex1
								{
									OFFSET 0.750000 0.000000 0.000000
									CHANNELS 3 Zrotation Yrotation Xrotation
									End Site
									{
										OFFSET 0.000000 0.000000 0.000000
									}
								}
							}
						}
					}
				}
				JOINT RightShoulder
				{
					OFFSET 0.000000 0.000000 0.000000
					CHANNELS 3 Zrotation Yrotation Xrotation
					JOINT RightArm
					{
						OFFSET -2.700000 1.550000 -0.730000
						CHANNELS 3 Zrotation Yrotation Xrotation
						JOINT RightForeArm
						{
							OFFSET -5.450000 0.000000 0.000000
							CHANNELS 3 Zrotation Yrotation Xrotation
							JOINT RightHand
							{
								OFFSET -3.450000 0.000000 0.000000
								CHANNELS 3 Zrotation Yrotation Xrotation
								JOINT RightHandIndex1
								{
									OFFSET -0.750000 0.000000 0.000000
									CHANNELS 3 Zrotation Yrotation Xrotation
									End Site
									{
										OFFSET 0.000000 0.000000 0.000000
									}
								}
							}
						}
					}
				}
			}
		}
	}
}
MOTION
Frames: 7
Frame Time: 0.016667
0.551230 16.876210 -0.755600 -2.130876 -0.672792 2.874188 -15.787946 13.291802 3.121981 -0.039229 0.301487 -2.614757 -8.574628 4.533617 2.660665 -0.584970 4.578842 3.504832 0.707390 0.126290 0.474920 17.663937 -10.088935 2.656033 -25.706555 -0.072168 -11.040220 3.922432 -4.310359 0.874169 -0.577429 -4.262581 3.112330 0.119860 0.411540 0.541880 -1.853589 -3.054090 -7.434977 -7.234447 3.003079 4.644109 10.235315 0.703045 4.801602 2.043633 3.403618 -11.094176 3.789048 -0.771181 34.041102 -8.026910 3.313820 -12.712740 -19.579316 -11.670203 4.611494 6.740106 4.387054 0.801012 8.355144 -5.733370 -1.162273 -3.931528 2.725912 0.950120 0.340180 0.017270 0.453260 17.192814 9.712078 8.494268 -2.754770 -8.892690 -1.050996 -8.832743 4.154592 -0.227760 1.890183 -1.505333 -0.299740 0.194180 -0.195720 -0.379130 
0.548220 16.878840 -0.755810 -2.170857 -0.683244 2.829303 -15.790809 13.307554 3.126288 0.045465 0.294017 -2.628825 -8.590667 4.548070 2.711775 -0.577954 4.577608 3.504131 0.708560 0.125360 0.479400 17.656499 -10.093822 2.656262 -25.567268 -0.063833 -10.976438 3.878641 -4.293748 0.843303 -0.580460 -4.241700 3.122895 0.114620 0.405060 0.539810 -1.838064 -3.072849 -7.448826 -7.221759 3.019660 4.768275 10.265783 0.729860 4.692290 2.045835 3.321089 -11.121599 3.600790 -0.760123 34.291587 -7.852680 3.230560 -12.941210 -19.582212 -11.665540 4.603901 6.865126 4.528572 0.791969 8.350996 -5.909565 -1.157626 -3.920744 2.723673 0.955810 0.330950 0.023730 0.451710 17.212829 9.777618 8.534868 -3.009789 -9.130321 -1.027749 -8.711386 4.221361 -0.207841 1.891848 -1.496542 -0.296350 0.195770 -0.197310 -0.379500 
0.546420 16.881030 -0.756060 -2.232978 -0.662776 2.780982 -15.795296 13.331355 3.134417 0.148583 0.285855 -2.661790 -8.631948 4.567913 2.755883 -0.579273 4.588333 3.504024 0.702240 0.115190 0.476210 17.646659 -10.103825 2.645758 -25.334892 -0.052582 -10.896223 3.780696 -4.277564 0.875373 -0.578242 -4.215116 3.140524 0.107170 0.409920 0.535990 -1.817112 -3.102993 -7.459940 -7.125334 3.033322 4.905647 10.296831 0.764660 4.614159 2.058104 3.184274 -11.124663 3.310954 -0.758945 34.462117 -7.753580 3.099790 -13.097840 -19.627167 -11.660120 4.575047 7.116027 4.721014 0.792804 8.421855 -6.176580 -1.161792 -3.916383 2.714444 0.963930 0.328210 0.022750 0.450030 17.259162 9.883008 8.579431 -3.663337 -9.625345 -0.950664 -8.406159 4.396943 -0.187390 1.880848 -1.485545 -0.301280 0.205630 -0.191090 -0.380750 
0.545010 16.882660 -0.752600 -2.270027 -0.639514 2.748360 -15.798060 13.353337 3.146552 0.179867 0.292087 -2.639069 -8.532274 4.555680 2.716615 -0.565058 4.580809 3.517445 0.690020 0.096140 0.478250 17.635215 -10.117426 2.651471 -25.122910 -0.039384 -10.773812 3.673863 -4.250028 0.794144 -0.582487 -4.180897 3.161676 0.086850 0.415510 0.528830 -1.795804 -3.118115 -7.495398 -6.991222 2.961256 5.006726 10.245971 0.747887 4.344898 2.074696 2.992452 -11.237616 2.856978 -0.740598 35.169127 -7.485860 2.910930 -13.111440 -19.587452 -11.706228 4.628649 7.335992 5.024231 0.793514 8.388113 -6.214914 -1.153712 -3.908208 2.689137 0.974300 0.317600 0.028820 0.448360 17.229300 10.063427 8.658780 -4.243867 -10.063483 -0.926251 -8.266977 4.560995 -0.148938 1.886569 -1.460040 -0.303720 0.221880 -0.188160 -0.377360 
0.540740 16.888150 -0.748890 -2.196625 -0.625873 2.642169 -15.808724 13.395054 3.169563 0.136823 0.317790 -2.571049 -8.429393 4.553760 2.774180 -0.568196 4.570804 3.518745 0.690360 0.087880 0.477190 17.611178 -10.136211 2.652292 -25.012974 -0.040269 -10.614870 3.540763 -4.250536 0.837470 -0.590732 -4.150274 3.183889 0.075810 0.402900 0.520990 -1.744596 -3.163226 -7.548844 -7.089467 2.945528 5.272621 10.320762 0.783176 3.764326 2.132491 2.762243 -11.355835 2.265217 -0.713337 36.322326 -7.162440 2.652100 -13.506370 -19.627752 -11.700774 4.612643 7.618490 5.402057 0.797279 8.290798 -6.570374 -1.145926 -3.880664 2.671657 1.004800 0.295980 0.041720 0.449830 17.239587 10.261251 8.754460 -4.938766 -10.554902 -0.902262 -8.111348 4.555190 -0.089824 1.881905 -1.434421 -0.308270 0.230170 -0.186750 -0.383440 
0.537150 16.894140 -0.747490 -2.076121 -0.589521 2.541528 -15.816796 13.432652 3.186088 0.023837 0.327086 -2.555674 -8.278906 4.546584 2.959263 -0.554804 4.529063 3.514235 0.711180 0.113280 0.482090 17.591170 -10.153875 2.654801 -24.987628 -0.054010 -10.502275 3.407994 -4.242143 0.905465 -0.606271 -4.129732 3.182962 0.079940 0.366470 0.527830 -1.703658 -3.202005 -7.593146 -7.240154 2.952846 5.578399 10.355881 0.839836 3.208120 2.179105 2.585188 -11.400810 1.801581 -0.708067 37.170238 -6.673280 2.388340 -14.030270 -19.769943 -11.678174 4.555217 7.973377 5.650730 0.770253 8.396626 -6.812272 -1.125897 -3.839466 2.697549 1.019390 0.266100 0.071050 0.455360 17.362372 10.419596 8.795648 -5.753661 -11.061812 -0.793812 -7.667625 4.572860 -0.048293 1.889912 -1.438391 -0.286960 0.206800 -0.204300 -0.378920 
0.534110 16.897930 -0.746750 -2.011271 -0.575626 2.452563 -15.822094 13.470283 3.199867 -0.059996 0.325305 -2.560331 -8.062861 4.516515 3.067379 -0.538395 4.480141 3.519679 0.735270 0.142320 0.486370 17.575836 -10.164728 2.656307 -24.988449 -0.067121 -10.459908 3.445316 -4.260030 1.043972 -0.622986 -4.112958 3.181934 0.078170 0.343600 0.535580 -1.673725 -3.253903 -7.628945 -7.320140 2.940328 5.899959 10.421834 0.862152 2.750601 2.194275 2.246820 -11.420552 1.096994 -0.536591 37.668880 -6.019840 2.156340 -14.634110 -19.717249 -11.519399 4.491618 8.058070 5.825509 0.752448 8.426216 -7.015837 -1.112967 -3.802860 2.729821 1.028430 0.240190 0.092060 0.463410 17.342880 10.575177 8.808215 -6.541430 -11.365839 -0.668058 -6.912590 4.449468 -0.024150 1.896505 -1.441814 -0.260160 0.188470 -0.218440 -0.369170 
